<?xml version="1.0" encoding="utf-8"?>
<!-- Generator: Adobe Illustrator 20.0.0, SVG Export Plug-In . SVG Version: 6.00 Build 0)  -->
<svg version="1.1" id="Ebene_1" xmlns="http://www.w3.org/2000/svg" xmlns:xlink="http://www.w3.org/1999/xlink" x="0px" y="0px"
	 viewBox="0 0 300 300" enable-background="new 0 0 300 300" xml:space="preserve">
<g>
	<g>
		<g transform="translate(64 352)">
			<path fill="#F6F6F6" d="M148.4-219h-45.9v-45.9c0-2.3-1.9-4.2-4.2-4.2h-25c-2.3,0-4.2,1.9-4.2,4.2v45.9H23.2
				c-2.3,0-4.2,1.9-4.2,4.2v25c0,2.3,1.9,4.2,4.2,4.2h45.9v45.9c0,2.3,1.9,4.2,4.2,4.2h25c2.3,0,4.2-1.9,4.2-4.2v-45.9h45.9
				c2.3,0,4.2-1.9,4.2-4.2v-25C152.6-217.1,150.7-219,148.4-219z"/>
		</g>
	</g>
	<circle fill="none" stroke="#F6F6F6" stroke-width="27.2455" stroke-miterlimit="10" cx="149.8" cy="149.7" r="134.9"/>
</g>
</svg>
