<?xml version="1.0" encoding="utf-8"?>
<!-- Generator: Adobe Illustrator 20.0.0, SVG Export Plug-In . SVG Version: 6.00 Build 0)  -->
<svg version="1.1" id="Ebene_1" xmlns="http://www.w3.org/2000/svg" xmlns:xlink="http://www.w3.org/1999/xlink" x="0px" y="0px"
	 viewBox="0 0 300 300" enable-background="new 0 0 300 300" xml:space="preserve">
<g>
	<path fill="#F7C649" d="M175.6,143.2c-4.3-3.3-13.1-7.1-26.6-11.1c-5.5-1.5-10.6-3-15.2-4.7c-4.9,1.2-8.5,3.3-10.9,6.4
		c-2.3,3.1-3.5,6.8-3.5,11c0,4.3,0.8,7.7,2.5,10.1c1.7,2.5,4.5,4.7,8.6,6.7c4.1,2,10.5,4.3,19.3,6.8c8.7,2.5,14.5,4.3,17.2,5.3
		c4.8-1.2,8.5-3.4,11.1-6.5c2.6-3.1,3.9-6.8,3.9-11C182.1,150.9,179.9,146.5,175.6,143.2z"/>
	<path fill="#F7C649" d="M150.5,2C68.5,2,2,68.5,2,150.5S68.5,299,150.5,299S299,232.5,299,150.5S232.5,2,150.5,2z M191.8,192.1
		c2.2,4.2,3.3,9.4,3.3,15.5c0,10.3-4,18.6-12,24.7c-8,6.1-19,9.2-33.1,9.2c-6.9,0-13.4-0.9-19.6-2.6c-6.2-1.7-11.4-4.3-15.8-7.9
		c-8.6-7-12.8-16.7-12.8-29.4l17.2-0.2c0,8,2.8,14.3,8.3,19c5.5,4.6,13.1,7,22.7,7c8.4,0,15.1-1.8,20.2-5.4
		c5.1-3.6,7.7-8.4,7.7-14.3c0-5.5-2.2-9.8-6.6-13.1s-13-6.8-25.9-10.6c-11.2-3-19.8-6.1-25.7-9.6s-10.3-7.5-13.2-12.3
		c-2.9-4.8-4.3-10.6-4.3-17.4c0-11.4,5.6-19.9,16.8-25.3c-4.1-3-7.2-6.6-9.4-10.8s-3.3-9.4-3.3-15.5c0-10.2,4.1-18.4,12.3-24.6
		s19.2-9.2,32.8-9.2c14.3,0,25.4,3.5,33.4,10.4c8,7,12,16.7,12,29.4H180c0-7.7-2.6-13.9-7.8-18.7c-5.2-4.8-12-7.2-20.6-7.2
		c-8.7,0-15.6,1.8-20.6,5.3c-5,3.5-7.4,8.3-7.4,14.4c0,4.2,0.9,7.6,2.6,10.1c1.7,2.5,4.7,4.7,8.8,6.7c4.2,2,10.7,4.2,19.5,6.7
		c8.8,2.5,15.9,4.8,21.1,7c5.2,2.2,9.5,4.8,13,7.8c3.5,3,6.1,6.5,7.9,10.4c1.8,4,2.7,8.7,2.7,14.2c0,11.6-5.7,20.1-17.2,25.3
		C186.3,184.3,189.5,187.9,191.8,192.1z"/>
</g>
</svg>
