<?xml version="1.0" encoding="utf-8"?>
<!-- Generator: Adobe Illustrator 20.0.0, SVG Export Plug-In . SVG Version: 6.00 Build 0)  -->
<svg version="1.1" id="Ebene_1" xmlns="http://www.w3.org/2000/svg" xmlns:xlink="http://www.w3.org/1999/xlink" x="0px" y="0px"
	 viewBox="0 0 300 300" enable-background="new 0 0 300 300" xml:space="preserve">
<g>
	<path fill="#F6F6F6" stroke="#F6F6F6" stroke-width="4.9681" stroke-miterlimit="10" d="M130.2,143.2l0.1-3.4
		c5-1.5,7.7-2.3,8.1-2.5c2.8-1.2,5.7-3.1,8.7-5.7c3-2.5,5.6-5.4,7.7-8.6c0.9-0.2,1.6-0.2,2.2-0.2l1.4,0.1c0.3,3.7,0.5,6.4,0.5,8.1
		c0,0.4-0.1,2.1-0.2,5.2v6.1l0.1,33.2l-0.3,35.2c-0.1,2.8,0.4,4.8,1.4,5.9c1,1.1,4,2.4,8.9,3.7c3.1,0.8,5.4,1.6,6.9,2.2
		c0.2,0.5,0.3,1,0.3,1.4c0,0.5-0.2,1-0.6,1.7c-3-0.1-6.8-0.3-11.5-0.6c-6.4-0.5-10.6-0.8-12.7-0.8c-1,0-7.1,0.2-18.4,0.6
		c-2.3,0.1-4.5,0.3-6.7,0.6c-0.4,0-1-0.1-1.8-0.3c-0.4-0.5-0.6-1-0.6-1.4c0-1.1,0.7-1.9,2.2-2.5c0.3-0.2,4.2-1,11.8-2.6
		c2.5-0.5,4.1-1.2,4.8-2.3c1.3-1.6,2-4.2,2-7.7c0.2-5.9,0.2-22.1,0.2-48.6c0-5.3-0.2-8.6-0.7-9.9c-0.4-0.9-1.4-2-3.1-3.2
		C139.1,145.7,135.6,144.4,130.2,143.2z M139.9,83.4c0-2.5,1-4.7,2.9-6.6c2-1.8,4.3-2.8,7.1-2.8c2.8,0,5.3,1,7.5,3.1
		c2.2,2.1,3.2,4.3,3.2,6.7s-1.1,4.6-3.2,6.7c-2.1,2.1-4.6,3.2-7.5,3.2c-2.8,0-5.2-1-7.2-2.9S139.9,86.4,139.9,83.4z"/>
</g>
<g>
	<path fill="#F6F6F6" d="M149.7,298.2c-81.3,0-147.4-66.1-147.4-147.4S68.4,3.5,149.7,3.5S297,69.6,297,150.9
		S230.9,298.2,149.7,298.2z M149.7,29.5C82.8,29.5,28.4,84,28.4,150.9s54.4,121.3,121.3,121.3S271,217.8,271,150.9
		S216.6,29.5,149.7,29.5z"/>
</g>
</svg>
