<?xml version="1.0" encoding="utf-8"?>
<!-- Generator: Adobe Illustrator 20.0.0, SVG Export Plug-In . SVG Version: 6.00 Build 0)  -->
<svg version="1.1" id="Ebene_1" xmlns="http://www.w3.org/2000/svg" xmlns:xlink="http://www.w3.org/1999/xlink" x="0px" y="0px"
	 viewBox="0 0 300 226.1" enable-background="new 0 0 300 226.1" xml:space="preserve">
<g>
	<rect x="199.5" y="104.4" fill="#F7C649" width="20.6" height="10.3"/>
	<path fill="#F7C649" d="M148,94.8c-25.2,0-45.7,20.5-45.7,45.7c0,25.2,20.5,45.7,45.7,45.7s45.7-20.5,45.7-45.7
		C193.7,115.3,173.2,94.8,148,94.8z M148,174c-18.5,0-33.5-15-33.5-33.5s15-33.5,33.5-33.5s33.5,15,33.5,33.5S166.5,174,148,174z"/>
	<path fill="#F7C649" d="M296.7,148.9c0-81.4-66-147.4-147.4-147.4C67.9,1.4,1.9,67.4,1.9,148.8c0,28.3,8,54.8,21.9,77.2h251v0.1
		C288.7,203.6,296.7,177.2,296.7,148.9z M230.6,186.8c0,5.7-4.6,10.3-10.3,10.3H76.1c-5.7,0-10.3-4.6-10.3-10.3V94.1
		c0-5.7,4.6-10.3,10.3-10.3h36c2.5-10.3,5.1-20.6,15.4-20.6h41.2c10.3,0,12.8,10.3,15.4,20.6h36c5.6,0,10.3,4.7,10.5,10.3V186.8z"/>
</g>
</svg>
