<?xml version="1.0" encoding="utf-8"?>
<!-- Generator: Adobe Illustrator 20.0.0, SVG Export Plug-In . SVG Version: 6.00 Build 0)  -->
<svg version="1.1" id="Ebene_1" xmlns="http://www.w3.org/2000/svg" xmlns:xlink="http://www.w3.org/1999/xlink" x="0px" y="0px"
	 viewBox="0 0 281.6 285.5" enable-background="new 0 0 281.6 285.5" xml:space="preserve">
<g transform="translate(128 128)">
	<path fill="#F6F6F6" d="M13.2-126.4c-77.6,0-140.5,19.7-140.5,43.9v35.1c0,24.2,62.9,43.9,140.5,43.9s140.5-19.7,140.5-43.9v-35.1
		C153.6-106.8,90.7-126.4,13.2-126.4z"/>
	<path fill="#F6F6F6" d="M13.2,22.8c-77.6,0-140.5-19.7-140.5-43.9v52.7c0,24.2,62.9,43.9,140.5,43.9s140.5-19.7,140.5-43.9v-52.7
		C153.6,3.2,90.7,22.8,13.2,22.8z"/>
	<path fill="#F6F6F6" d="M13.2,101.9c-77.6,0-140.5-19.7-140.5-43.9v52.7c0,24.2,62.9,43.9,140.5,43.9s140.5-19.7,140.5-43.9V58
		C153.6,82.2,90.7,101.9,13.2,101.9z"/>
</g>
</svg>
