<?xml version="1.0" encoding="utf-8"?>
<!-- Generator: Adobe Illustrator 20.0.0, SVG Export Plug-In . SVG Version: 6.00 Build 0)  -->
<svg version="1.1" id="Ebene_1" xmlns="http://www.w3.org/2000/svg" xmlns:xlink="http://www.w3.org/1999/xlink" x="0px" y="0px"
	 viewBox="0 0 300 300" enable-background="new 0 0 300 300" xml:space="preserve">
<g>
	<path fill="#F7C649" d="M95.7,81c0,28.7,12.3,53,34.4,61v15.4c-22.1,8-34.4,32.3-34.4,61h108c0-28.7-12.3-53-34.4-61V142
		c22.1-8,34.4-32.3,34.4-61H95.7z M166.3,125.6c-11,6.2-11.6,14.4-11.6,19.3v9.9c0,4.9,0.6,13,11.6,19.2h0
		c11.2,6.5,19.5,19.3,22,34.7h-77c2.5-15.4,10.8-28.3,21.9-34.7c11-6.2,11.6-14.4,11.6-19.3v-9.9c0-4.9-0.6-13-11.6-19.2
		c-5.9-3.4-11-8.6-14.9-15.1h62.8C177.3,116.9,172.2,122.1,166.3,125.6z"/>
	<path fill="#F7C649" d="M149.8,1C67.6,1,1,67.6,1,149.8s66.6,148.8,148.8,148.8s148.8-66.6,148.8-148.8S231.9,1,149.8,1z
		 M183,149.8c21.1,13.4,35.4,39.2,35.4,68.7c0,3.3-0.2,6.6-0.5,9.8H81.6c-0.3-3.2-0.5-6.5-0.5-9.8c0-29.6,14.3-55.3,35.4-68.7
		C95.3,136.3,81,110.6,81,81c0-3.3,0.2-6.6,0.5-9.8h136.4c0.3,3.2,0.5,6.5,0.5,9.8C218.5,110.6,204.2,136.3,183,149.8L183,149.8z"/>
</g>
</svg>
