<?xml version="1.0" encoding="utf-8"?>
<!-- Generator: Adobe Illustrator 20.0.0, SVG Export Plug-In . SVG Version: 6.00 Build 0)  -->
<svg version="1.1" id="Ebene_1" xmlns="http://www.w3.org/2000/svg" xmlns:xlink="http://www.w3.org/1999/xlink" x="0px" y="0px"
	 viewBox="0 0 300 300" enable-background="new 0 0 300 300" xml:space="preserve">
<g>
	<polygon fill="#F7C649" points="168.3,133.7 149.9,96.3 131.4,133.7 90.2,139.7 120,168.8 113,209.9 149.9,190.5 186.8,209.9 
		179.7,168.8 209.6,139.7 	"/>
	<path fill="#F7C649" d="M149.9,3C68.4,3,2.3,69.1,2.3,150.6s66.1,147.6,147.6,147.6c81.5,0,147.6-66.1,147.6-147.6S231.4,3,149.9,3
		z M202.1,231l-52.2-27.5L97.6,231l10-58.2l-42.3-41.2l58.4-8.5l26.1-52.9l26.1,52.9l58.4,8.5l-42.3,41.2L202.1,231z"/>
</g>
</svg>
