<?xml version="1.0" encoding="utf-8"?>
<!-- Generator: Adobe Illustrator 20.0.0, SVG Export Plug-In . SVG Version: 6.00 Build 0)  -->
<svg version="1.1" id="Ebene_1" xmlns="http://www.w3.org/2000/svg" xmlns:xlink="http://www.w3.org/1999/xlink" x="0px" y="0px"
	 viewBox="0 0 300 300" enable-background="new 0 0 300 300" xml:space="preserve">
<path fill="#F7C649" d="M151.8,1C69.5,0,2,65.9,0.9,148.2c-1,82.3,64.9,149.8,147.2,150.9c82.3,1,149.8-64.9,150.9-147.2
	C300,69.6,234.1,2,151.8,1z M190.9,161.6c0,1.4-1.2,2.6-2.6,2.5l-28.2-0.3l-0.3,28.2c0,1.4-1.2,2.6-2.6,2.5l-15.4-0.2
	c-1.4,0-2.6-1.2-2.5-2.6l0.3-28.2l-28.2-0.3c-1.4,0-2.6-1.2-2.5-2.6l0.2-15.4c0-1.4,1.2-2.6,2.6-2.5l28.2,0.3l0.3-28.2
	c0-1.4,1.2-2.6,2.6-2.5l15.4,0.2c1.4,0,2.6,1.2,2.5,2.6l-0.3,28.2l28.2,0.3c1.4,0,2.6,1.2,2.5,2.6L190.9,161.6z"/>
</svg>
