<?xml version="1.0" encoding="utf-8"?>
<!-- Generator: Adobe Illustrator 20.0.0, SVG Export Plug-In . SVG Version: 6.00 Build 0)  -->
<svg version="1.1" id="Ebene_1" xmlns="http://www.w3.org/2000/svg" xmlns:xlink="http://www.w3.org/1999/xlink" x="0px" y="0px"
	 viewBox="0 0 300 300" enable-background="new 0 0 300 300" xml:space="preserve">
<g transform="translate(384 256)">
	<path fill="#F6F6F6" d="M-381.5-253.7h37V42.1h-37V-253.7z"/>
	<path fill="#F6F6F6" d="M-141.2-68c23.9,0,44.6-5.8,55.5-14.3v-147.9c-10.8,8.5-31.6,14.3-55.5,14.3s-44.6-5.8-55.5-14.3v147.9
		C-185.8-73.7-165-68-141.2-68z"/>
	<path fill="#F6F6F6" d="M-205.9-244.3c-13.6-5.8-33.4-9.4-55.5-9.4c-27.9,0-52.1,5.8-64.7,14.3v147.9c12.6-8.5,36.8-14.3,64.7-14.3
		c22.1,0,41.9,3.6,55.5,9.4V-244.3z"/>
</g>
</svg>
