<?xml version="1.0" encoding="utf-8"?>
<!-- Generator: Adobe Illustrator 20.0.0, SVG Export Plug-In . SVG Version: 6.00 Build 0)  -->
<svg version="1.1" id="Ebene_1" xmlns="http://www.w3.org/2000/svg" xmlns:xlink="http://www.w3.org/1999/xlink" x="0px" y="0px"
	 viewBox="0 0 227.5 300" enable-background="new 0 0 227.5 300" xml:space="preserve">
<g>
	<path fill="#F6F6F6" d="M170.9,299.1H57.3V290c0-3.5,2.9-6.4,6.4-6.4h100.8c3.5,0,6.4,2.9,6.4,6.4V299.1z"/>
	<g>
		<g>
			<defs>
				<rect id="SVGID_1_" x="3.7" y="1.8" width="220.9" height="298.2"/>
			</defs>
			<clipPath id="SVGID_2_">
				<use xlink:href="#SVGID_1_"  overflow="visible"/>
			</clipPath>
		</g>
		<path fill="#F6F6F6" d="M197.7,28.9c0.4-5.2,0.7-10.4,0.9-15.7c-7.2,0-12.9-6-12.7-13.2H41.8c0.3,7.2-5.5,13.2-12.7,13.2
			c0.2,5.3,0.5,10.6,0.9,15.7H3.7l0,6.5c0.1,24.4,6,47.4,16.6,64.8c9.5,15.5,21.8,25.1,35.3,27.7c13.6,26.7,31.5,44.1,51.2,47.5
			c-2.2,47.7-18.2,86.4-38.9,96.1v7.6h90.8v-7.6c-20.7-9.7-36.6-48.3-38.9-96c20.1-3,38.3-20.5,52.2-47.6
			c13.7-2.5,26.2-12.2,35.7-27.8c10.6-17.4,16.6-40.4,16.6-64.8l0-6.5H197.7z M31.3,93.4c-8.5-13.9-13.6-32-14.6-51.6h14.7
			c3.1,25.9,8.9,49.5,16.8,69.5C42,107.5,36.2,101.5,31.3,93.4z M154.6,74.4c-0.2,0.6-0.6,1-1.1,1.3c-4.6,2.9-9.2,7.3-13.6,13.3
			l-1.6,2.1l5.5-3.7c1-0.6,2.2-0.6,3.1,0.2c0.9,0.8,1.1,2,0.6,3.1c-6.3,12.7-13.3,23.7-20.2,31.7c-5.1,6-10,9.9-14,11.5
			c-0.3,0.1,17.5-42.2,17.2-42.1l-33.8,65.9c-0.3,0.6-0.8,1-1.4,1.2c-0.6,0.2-1.4,0.2-2-0.1c-1.3-0.6-1.8-2.1-1.3-3.3l11.4-26.3
			c-0.6-1.1-1.1-2.2-1.6-3.5c-1.3-3.3-2.1-6.8-2.6-10.6c-1.3-10.8,0-32.3,23.6-54.9l0.2-0.2c0.7-0.7,1.7-0.9,2.6-0.6
			c0.9,0.3,1.6,1.1,1.7,2.1l1.6,11.7l0.5-2.6c1.3-6.4,1.6-12.2,1.1-17.1c-0.1-0.7,0.1-1.5,0.6-2c11.2-12.5,17.7-24,21.2-31.4
			c0.5-1,1.5-1.6,2.5-1.5c1.1,0.1,2,0.8,2.3,1.9c0.9,3.3,1.6,6.8,2.1,10.3C160.7,40.7,161,56.2,154.6,74.4z M196.9,93.4
			c-5.1,8.3-11,14.4-17.4,18.2c7.9-20,13.8-43.8,16.9-69.8h15C210.5,61.4,205.4,79.5,196.9,93.4z"/>
	</g>
</g>
</svg>
