<?xml version="1.0" encoding="utf-8"?>
<!-- Generator: Adobe Illustrator 20.0.0, SVG Export Plug-In . SVG Version: 6.00 Build 0)  -->
<svg version="1.1" id="Ebene_1" xmlns="http://www.w3.org/2000/svg" xmlns:xlink="http://www.w3.org/1999/xlink" x="0px" y="0px"
	 viewBox="0 0 300 300" enable-background="new 0 0 300 300" xml:space="preserve">
<g>
	<path fill="#F7C649" d="M75.8,91.4C75.8,91.4,75.8,91.4,75.8,91.4l0,122.8c0,0,0,0,0,0H219c0,0,0,0,0,0V91.4c0,0,0,0,0,0H75.8z
		 M183.2,101.6c8.5,0,15.4,6.9,15.4,15.4c0,8.5-6.9,15.4-15.4,15.4c-8.5,0-15.4-6.9-15.4-15.4C167.9,108.5,174.8,101.6,183.2,101.6z
		 M208.8,204H86v-20.5l35.8-61.4l40.9,51.2H173l35.8-30.7V204z"/>
	<path fill="#F7C649" d="M150.1,1C67.8,1,1.2,67.7,1.2,149.9c0,82.2,66.7,148.9,148.9,148.9c82.2,0,148.9-66.7,148.9-148.9
		C299,67.7,232.3,1,150.1,1z M229.3,214.2c0,5.6-4.6,10.2-10.2,10.2H75.8c-5.6,0-10.2-4.6-10.2-10.2V91.4c0-5.6,4.6-10.2,10.2-10.2
		h143.3c5.6,0,10.2,4.6,10.2,10.2V214.2z"/>
</g>
</svg>
