<?xml version="1.0" encoding="utf-8"?>
<!-- Generator: Adobe Illustrator 20.0.0, SVG Export Plug-In . SVG Version: 6.00 Build 0)  -->
<svg version="1.1" id="Ebene_1" xmlns="http://www.w3.org/2000/svg" xmlns:xlink="http://www.w3.org/1999/xlink" x="0px" y="0px"
	 viewBox="0 0 244.9 285.5" enable-background="new 0 0 244.9 285.5" xml:space="preserve">
<g transform="translate(32 224)">
	<path fill="#F6F6F6" d="M37.7,58C19,19,28.9-3.3,43.3-24.3c15.7-23,19.8-45.8,19.8-45.8s12.4,16.1,7.4,41.3
		c21.9-24.4,26-63.2,22.7-78C142.7-72.3,163.8,2.5,135.4,58c151.5-85.7,37.7-214,17.9-228.4c6.6,14.4,7.9,38.9-5.5,50.8
		c-22.6-85.6-78.4-103.2-78.4-103.2c6.6,44.2-23.9,92.5-53.4,128.6c-1-17.6-2.1-29.8-11.4-46.6c-2.1,32-26.5,58.1-33.2,90.1
		C-37.6-7.4-21.9,24.4,37.7,58L37.7,58z"/>
</g>
</svg>
