<?xml version="1.0" encoding="utf-8"?>
<!-- Generator: Adobe Illustrator 20.0.0, SVG Export Plug-In . SVG Version: 6.00 Build 0)  -->
<svg version="1.1" id="Ebene_1" xmlns="http://www.w3.org/2000/svg" xmlns:xlink="http://www.w3.org/1999/xlink" x="0px" y="0px"
	 viewBox="0 0 281.6 300" enable-background="new 0 0 281.6 300" xml:space="preserve">
<g transform="translate(352 96)">
	<path fill="#F6F6F6" d="M-257.9,16.5h37.5V54h-37.5V16.5z M-201.6,16.5h37.5V54h-37.5V16.5z M-145.4,16.5h37.5V54h-37.5V16.5z
		 M-314.1,129h37.5v37.5h-37.5V129z M-257.9,129h37.5v37.5h-37.5V129z M-201.6,129h37.5v37.5h-37.5V129z M-257.9,72.8h37.5v37.5
		h-37.5V72.8z M-201.6,72.8h37.5v37.5h-37.5V72.8z M-145.4,72.8h37.5v37.5h-37.5V72.8z M-314.1,72.8h37.5v37.5h-37.5V72.8z
		 M-107.9-96v18.8h-37.5V-96h-131.2v18.8h-37.5V-96h-37.5v300h281.3V-96H-107.9z M-89.1,185.3h-243.7V-21h243.7V185.3z"/>
</g>
</svg>
